<?xml version="1.0" encoding="utf-8"?>
<!-- Generator: Adobe Illustrator 22.0.0, SVG Export Plug-In . SVG Version: 6.00 Build 0)  -->
<svg version="1.1" xmlns="http://www.w3.org/2000/svg" xmlns:xlink="http://www.w3.org/1999/xlink" x="0px" y="0px"
	 viewBox="0 0 1417.3 1417.3" style="enable-background:new 0 0 1417.3 1417.3;" xml:space="preserve">
<style type="text/css">
	.st0{fill:none;stroke:#000000;stroke-miterlimit:10;}
	.st1{fill:none;stroke:#009FE3;stroke-miterlimit:10;}
	.st2{fill:none;stroke:#E30613;stroke-miterlimit:10;}
</style>
<g id="Layer_1">
	
		<rect x="544.1" y="577.1" transform="matrix(-1 -1.224647e-16 1.224647e-16 -1 1142.1417 1298.8435)" class="st0" width="53.9" height="144.6"/>
	<circle class="st0" cx="571.1" cy="697.6" r="58.1"/>
	<rect x="556.2" y="755" class="st0" width="29.8" height="22.7"/>
	<rect x="544.1" y="1031.9" class="st0" width="53.9" height="127.6"/>
	<rect x="544.1" y="1157.9" class="st0" width="53.9" height="27.7"/>
	<circle class="st0" cx="499.9" cy="1172" r="4.3"/>
	<circle class="st0" cx="499.9" cy="1141" r="4.3"/>
	<circle class="st0" cx="499.9" cy="1110" r="4.3"/>
	<circle class="st0" cx="499.9" cy="1079" r="4.3"/>
	<circle class="st0" cx="640.9" cy="1172" r="4.3"/>
	<circle class="st0" cx="640.9" cy="1141" r="4.3"/>
	<circle class="st0" cx="640.9" cy="1110" r="4.3"/>
	<circle class="st0" cx="640.9" cy="1079" r="4.3"/>
	<circle class="st0" cx="499.9" cy="921" r="4.3"/>
	<circle class="st0" cx="499.9" cy="890" r="4.3"/>
	<circle class="st0" cx="499.9" cy="859" r="4.3"/>
	<circle class="st0" cx="499.9" cy="828" r="4.3"/>
	<circle class="st0" cx="640.9" cy="921" r="4.3"/>
	<circle class="st0" cx="640.9" cy="890" r="4.3"/>
	<circle class="st0" cx="640.9" cy="859" r="4.3"/>
	<circle class="st0" cx="640.9" cy="828" r="4.3"/>
	<circle class="st0" cx="499.9" cy="680" r="4.3"/>
	<circle class="st0" cx="499.9" cy="649" r="4.3"/>
	<circle class="st0" cx="499.9" cy="618" r="4.3"/>
	<circle class="st0" cx="499.9" cy="587" r="4.3"/>
	<circle class="st0" cx="640.9" cy="680" r="4.3"/>
	<circle class="st0" cx="640.9" cy="649" r="4.3"/>
	<circle class="st0" cx="640.9" cy="618" r="4.3"/>
	<circle class="st0" cx="640.9" cy="587" r="4.3"/>
	<circle class="st0" cx="571.1" cy="876.8" r="9.1"/>
	<line class="st1" x1="479.3" y1="956.2" x2="660.7" y2="956.2"/>
	<line class="st1" x1="479.3" y1="797.2" x2="660.7" y2="797.2"/>
	<circle class="st0" cx="513" cy="695.3" r="29"/>
</g>
<g id="Layer_2">
	<path class="st2" d="M674.8,697.6c0-22.1-6.9-42.6-18.7-59.4V568H486v70.2c-11.8,16.8-18.7,37.3-18.7,59.4
		c0,22.1,6.9,42.6,18.7,59.4v428.6h170.1V757C667.9,740.2,674.8,719.7,674.8,697.6z"/>
</g>
</svg>
